<?xml version="1.0" encoding="utf-8"?>
<!-- Generator: Adobe Illustrator 25.2.3, SVG Export Plug-In . SVG Version: 6.00 Build 0)  -->
<svg version="1.1" id="Layer_1" xmlns="http://www.w3.org/2000/svg" xmlns:xlink="http://www.w3.org/1999/xlink" x="0px" y="0px"
	 viewBox="0 0 300 300" style="enable-background:new 0 0 300 300;" xml:space="preserve">
<style type="text/css">
	.st0{fill:#988430;}
	.st1{fill:#7A6A2A;}
	.st2{fill:#BA9F33;}
	.st3{fill:#C79C3B;}
	.st4{fill:#B58634;}
	.st5{fill:#DFC068;}
	.st6{fill:#A78F33;}
	.st7{fill:#A17C34;}
	.st8{fill:#B89844;}
	.st9{fill:#CBA94C;}
	.st10{fill:#AC8132;}
	.st11{fill:#927238;}
	.st12{fill:#8C6228;}
	.st13{fill:#D2A83E;}
	.st14{fill:#DCBA5A;}
	.st15{fill:#543E26;}
	.st16{fill:#F3EBDB;}
	.st17{fill:#DCDAD7;}
	.st18{fill:#A78E32;}
	.st19{fill:#B59544;}
	.st20{fill:#EBCC73;}
	.st21{fill:#D7D7D5;}
	.st22{fill:#E6DED7;}
	.st23{fill:#F5F2E6;}
	.st24{fill:#F8F3E4;}
	.st25{fill:#F4EFC8;}
	.st26{fill:#FCFCF4;}
	.st27{fill:#E5C66B;}
	.st28{fill:#242110;}
	.st29{fill:#938357;}
	.st30{fill:#CDBD83;}
	.st31{fill:#252211;}
	.st32{fill:#D2B257;}
	.st33{fill:#E6BD62;}
	.st34{fill:#696148;}
	.st35{fill:#F4ECB4;}
	.st36{fill:#71694F;}
	.st37{fill:#DFCD88;}
	.st38{fill:#DFC57C;}
	.st39{fill:#F3E19D;}
	.st40{fill:#DFDDD9;}
	.st41{fill:#D6D6D5;}
	.st42{fill:#6E6342;}
	.st43{fill:#BFA64C;}
	.st44{fill:#E7E3DB;}
	.st45{fill:#F5EDB6;}
	.st46{fill:#39331F;}
	.st47{fill:#CCA847;}
	.st48{fill:#C1A956;}
	.st49{fill:#ECD592;}
	.st50{fill:#D7C27C;}
	.st51{fill:#EED88B;}
	.st52{fill:#DFC677;}
	.st53{fill:#927D49;}
	.st54{fill:#C4A859;}
	.st55{fill:#C0993A;}
	.st56{fill:#E5CB7A;}
	.st57{fill:#D2B159;}
	.st58{fill:#BA9040;}
	.st59{fill:#D8C173;}
	.st60{fill:#E0CD81;}
	.st61{fill:#C2A44D;}
	.st62{fill:#CEB052;}
	.st63{fill:#D2BA6B;}
	.st64{fill:url(#SVGID_1_);}
	.st65{fill:#7D97F4;}
	.st66{opacity:0.2;fill:#FFFFFF;enable-background:new    ;}
	.st67{fill:url(#SVGID_2_);}
	.st68{fill:url(#SVGID_3_);}
	.st69{fill:url(#SVGID_4_);}
	.st70{fill:url(#SVGID_5_);}
	.st71{fill:url(#SVGID_6_);}
	.st72{fill:url(#SVGID_7_);}
	.st73{fill:url(#SVGID_8_);}
	.st74{fill:url(#SVGID_9_);}
	.st75{opacity:0.63;fill:url(#SVGID_10_);enable-background:new    ;}
	.st76{opacity:0.63;fill:url(#SVGID_11_);enable-background:new    ;}
	.st77{opacity:0.63;fill:url(#SVGID_12_);enable-background:new    ;}
	.st78{opacity:0.63;fill:url(#SVGID_13_);enable-background:new    ;}
	.st79{opacity:0.63;fill:url(#SVGID_14_);enable-background:new    ;}
	.st80{opacity:0.63;fill:url(#SVGID_15_);enable-background:new    ;}
</style>
<g>
	<path class="st0" d="M132.3,3.6c29-2.8,58.7,3.9,83.6,19.1c23.4,14.2,42.3,35.4,53.7,60.4c11.9,26,15.1,55.8,9.5,83.8
		c-5.6,28.1-20.5,54.3-41.7,73.5c-21.2,19.6-48.8,32.1-77.4,35.2c-18.5,1.8-37.5,0.3-55.2-5.3c-30.3-9.3-57.3-29.7-74.3-56.5
		c-14.5-22.2-22.1-48.9-21.8-75.3c0-30.3,10.8-60.4,29.7-84C61.2,25.7,95.9,7,132.3,3.6L132.3,3.6z"/>
	<path class="st1" d="M142.6,7.3c24.3-0.4,48.8,5.7,69.7,18.1c22.6,13.4,41.1,33.4,52.4,57.1c12.2,24.7,15.7,53.3,11.1,80.3
		c-6.2,36.3-28.5,69.3-59.6,88.7c-21.6,13.8-47.3,21-73,20.5c-25-0.2-49.8-8-70.7-21.8c-21.3-14.2-38.6-34.4-48.7-57.8
		c-11.6-26.4-14.2-56.8-7-84.8c6.9-28.4,23.8-54.1,46.7-72C85.9,17.9,114.1,7.8,142.6,7.3L142.6,7.3z"/>
	<path class="st2" d="M92.3,21.4c22.9-10.4,48.7-13.6,73.4-9.7c25.8,4,50.2,16.1,69.1,34.3c23.1,21.9,37.6,52.4,39.8,84.1
		c2.9,36.2-10.4,73.2-35.7,99.2c-0.3-7.5-0.4-15-0.7-22.6c-0.1-5.6-1.3-11.1-1.8-16.6c0.1-2,0.3-3.9,0.3-5.7
		c0.3-5.2-2.5-10.1-1.8-15.4c0.7-7.4-3.2-14.2-5.1-21.1c-2-4.9-1.8-10.3-3.6-15.1c-1.3-18.9-8.7-38-23-50.8c0.4-0.7,1.4-2,1.9-2.7
		c0.6,1.2,1.2,2.4,1.9,3.6c3.3-3.8,3.9-9,4.9-13.7c1.9-8.4,0.6-17.1-0.9-25.5c-1.1-4.3-2-9.3-5.6-12.3c-3.9-2.2-10.5-2.3-12.7,2.1
		c-0.1,0.3-0.2,0.8-0.3,1c-1.7,2.9-4,5.4-6.9,7.1c-5.1,3.2-8,9.3-13.5,11.9c-3.4,1.1-6.9-0.8-10.5-0.3c-6.6,0.7-13.3,1-19.7,2.9
		c-6.1-0.9-12.2-2-18.2-3.2c0-0.4,0.1-1.3,0.1-1.8c-2.8-2.7-5.2-5.7-6.3-9.5c-1.9-7-6.2-13.8-12.7-17.2c-0.9-0.3-1.9-0.8-2.8-1
		c-0.6,0.7-1.1,1.3-1.7,2c-0.2,0.4-0.7,1.5-0.9,2c-1.5,3.3-1.1,7-1.2,10.4c-0.1,9-1,18.1-4.9,26.4c-6.1,0-12.3-0.1-18.4,0
		c-1.2,2.7-0.8,5.7-0.9,8.7c-9.8,9.1-13.7,22.6-15.6,35.3c0,1,0,2,0.1,3c0,0.3,0,1.2,0.1,1.5c-4.3,5.7-5.1,13.2-6.2,20
		c1.5-0.1,3.2-0.2,4.8-0.3c-1.5,0.2-2.9,0.3-4.4,0.4c-0.3,1.5-0.4,3.1-0.7,4.6c1.4-0.6,2.8-1,4.2-1.5h0.8c-1.7,0.7-3.3,1.5-5,2.3
		c0,1,0.1,3,0.2,3.9c2-1,3.9-2,5.7-2.9l-0.8,0.8c-1.7,1-3.8,1.7-5.1,3.2c0,3.5,0.6,7.2,1,10.7c1.3,8.1,4.1,15.9,8.2,23
		c-0.1,5.1-1.2,10.4-4.3,14.6c0.9,1.5,2.2,3.1,2.3,5c-0.6,3.2-3.1,5.9-2.5,9.3c0.7,8.2-2.3,16.1-5.9,23.3
		c-18.6-19.2-30.8-44.6-34.6-71.1c-3.5-24.8,0.2-50.5,10.8-73.1C40.7,56.9,64.2,33.9,92.3,21.4L92.3,21.4z"/>
	<path class="st3" d="M100.2,25.3c0.6-0.7,1.1-1.3,1.7-2c0.9,0.3,1.9,0.7,2.8,1c1.5,4.9,4,9.8,3.4,15.1c-0.2,3.5-0.9,7.3,0.9,10.6
		c0.8,1.9,2.7,2.8,4.2,3.9c-0.9,0.8-1.9,1.5-2.9,2.1c-4.1,1.7-7.4,4.6-10.5,7.9c-1.2,0-2.4,0-3.5,0c6.5-7.9,9.4-18.2,9.4-28.3
		C105.9,31.5,102.7,28.4,100.2,25.3L100.2,25.3z"/>
	<path class="st4" d="M104.8,24.5c6.5,3.4,10.9,10.3,12.7,17.2c1,3.9,3.5,6.9,6.3,9.5c0,0.4-0.1,1.3-0.1,1.8
		c-3.4-1.1-7.6-1.9-10.4,1.1c-1.5-1.1-3.4-2.1-4.2-3.9c-1.8-3.3-1-7.1-0.9-10.6C108.7,34.2,106.3,29.3,104.8,24.5L104.8,24.5z"/>
	<path class="st5" d="M100.2,25.3c2.3,3.1,5.5,6.2,5.4,10.4c0,10.1-2.9,20.5-9.4,28.3c-0.4,0-1.3,0-1.8,0c2.8-4.3,5.6-9.1,6-14.4
		c0.6-7.5-1.8-14.8-1-22.4C99.7,26.8,100.1,25.7,100.2,25.3L100.2,25.3z"/>
	<path class="st6" d="M98.2,37.7c0.1-3.4-0.2-7.1,1.2-10.4c-0.8,7.5,1.5,14.9,1,22.4c-0.3,5.3-3.1,10-6,14.4h-1.1
		C97.2,55.8,98.1,46.6,98.2,37.7L98.2,37.7z"/>
	<path class="st7" d="M192.7,33.5c2.2-4.5,8.8-4.5,12.7-2.1c3.5,3,4.5,8,5.6,12.3c1.4,8.4,2.7,17.1,0.9,25.5c-1,4.8-1.5,10-4.9,13.7
		c-0.7-1.2-1.3-2.3-1.9-3.6c-0.7-1.9-1.2-3.8-1.8-5.6c2.3-5.1,3.4-10.7,4.1-16.3c0.6-5-2.8-9.1-6.1-12.3
		C199.6,40.3,196.1,36.9,192.7,33.5L192.7,33.5z"/>
	<path class="st8" d="M192.3,34.6c0.1-0.3,0.2-0.8,0.3-1c3.4,3.3,7,6.9,8.7,11.4c-0.1,1.3-0.3,2.8-1.9,3.3c-4,2.1-8.6,3.5-11.5,7.2
		c-2.1,2.7-6,4-6.3,7.6c0.4,0.3,1.3,0.9,1.7,1.2c-0.3,0.6-1.2,1.5-1.5,2.1c0.4,0.6,1,1,1.5,1.5c2.1-2.2,5.5-2.4,8.2-3.4
		c-0.4,1.1-0.9,2.1-1.3,3.3c1.2-0.3,2.4-0.6,3.5-0.8c-1.5,1.7-3.2,3.2-4.9,4.6c-0.2-0.1-0.6-0.3-0.8-0.3c-2.1-1-4.2-2.5-6.6-2.7
		c-0.1-0.3-0.3-1.1-0.4-1.4c-1.3-0.1-2.7-0.3-3.9-0.8c0.3-0.9,1-2.7,1.4-3.5c-0.8,0.3-2.2,1-3,1.4c2-3.3,3.9-6.6,5.9-10
		c0.2-0.3,0.3-0.8,0.6-0.9c2.7-5.1,6.6-9.2,9.4-14.2C192.6,37.9,192.4,36.1,192.3,34.6L192.3,34.6z"/>
	<path class="st9" d="M192.3,34.6c0.1,1.7,0.2,3.3-0.8,4.8c-2.7,5-6.7,9.2-9.4,14.2c0-4.2,0.4-8.5,3.3-11.8
		C188.4,40,190.7,37.4,192.3,34.6L192.3,34.6z"/>
	<path class="st10" d="M172,53.6c5.5-2.8,8.3-8.7,13.5-11.9c-2.8,3.3-3.3,7.6-3.3,11.8c-0.1,0.3-0.3,0.8-0.6,0.9
		c0.1-1.5-0.1-3.2-0.3-4.9c-2.7,5.4-5.5,10.6-9.4,15.3c-2.2-0.7-4.6-0.9-7-0.9c1.3-2.5,3-4.8,4.8-7c-9.2-2.1-18.6-0.1-27.9-0.9
		c6.4-1.9,13-2.1,19.7-2.9C165.1,52.8,168.6,54.7,172,53.6L172,53.6z"/>
	<path class="st11" d="M201.4,44.9c3.3,3.3,6.6,7.4,6.1,12.3c-0.7,5.6-1.8,11.2-4.1,16.3c-1.7,1.4-3.4,2.7-5.1,4
		c-0.9-0.6-1.7-1.2-2.5-1.8l-0.3-0.3c2.7-5.7,7-11.2,7.3-17.7c-5.1,0.2-10.2,1-15,2.7c-2,0.4-3,2.3-4.1,3.9
		c-0.4-0.3-1.3-0.9-1.7-1.2c0.3-3.5,4.3-5.1,6.3-7.6c3-3.6,7.5-5.1,11.5-7.2C201,47.7,201.3,46.2,201.4,44.9L201.4,44.9z"/>
	<path class="st12" d="M181.4,49.7c0.2,1.5,0.3,3.2,0.3,4.9c-2,3.3-3.9,6.6-5.9,10c0.8-0.3,2.2-1,3-1.4c-0.3,0.9-1,2.7-1.4,3.5
		c-1.8-0.6-3.5-1.2-5.3-1.7C175.9,60.3,178.7,55,181.4,49.7L181.4,49.7z"/>
	<path class="st13" d="M113.3,54c2.8-2.9,7-2.2,10.4-1.1c6,1.2,12.2,2.1,18.2,3.2c9.3,0.9,18.7-1.2,27.9,0.9
		c-1.8,2.1-3.4,4.5-4.8,6.9c-14.9,0-30,0.1-44.9,0c-0.7-2.1-0.8-4.8-2.7-6.2c-1.9-1.4-4.5-1.4-6.9-1.5
		C111.4,55.6,112.3,54.8,113.3,54L113.3,54z"/>
	<path class="st14" d="M99.9,64c3.1-3.1,6.3-6.2,10.5-7.9c2.3,0.3,5,0.2,6.9,1.5c2,1.4,2.1,4.1,2.7,6.2C113.3,64,106.6,64,99.9,64
		L99.9,64z"/>
	<path class="st15" d="M187.5,60.4c4.9-1.5,10-2.4,15-2.7c-0.3,6.5-4.5,11.9-7.3,17.7c-2-1.4-4-2.7-6.2-3.9c1.8-1.4,3.3-3,4.9-4.6
		c-1.2,0.3-2.4,0.4-3.5,0.8c0.4-1.1,0.9-2.1,1.3-3.3c-2.8,1-6.1,1.2-8.2,3.4c-0.6-0.6-1-1-1.5-1.5c0.3-0.6,1.2-1.5,1.5-2.1
		C184.5,62.8,185.6,60.9,187.5,60.4L187.5,60.4z"/>
	<path class="st16" d="M75,64.1c6.1-0.1,12.3,0,18.4,0h1.1c0.4,0,1.3,0,1.8,0c1.2,0,2.4,0,3.5,0c6.7,0,13.5,0,20.1,0
		c14.9,0.1,30,0,44.9,0c2.3,0,4.8,0.2,7,0.9c1.8,0.4,3.5,1,5.3,1.7c1.3,0.4,2.7,0.7,3.9,0.8c0.1,0.3,0.3,1.1,0.4,1.4
		c2.4,0.1,4.5,1.5,6.6,2.7c-1.4,3.5-4.2,6.2-6.9,8.8c2.2,1.3,4.5,2.7,6.6,4.2c2.7-2.7,5.1-5.7,7.5-8.6c0.9,0.6,1.7,1.2,2.5,1.8
		c1.8,1.3,3.4,2.7,5.1,4.2c14.4,12.9,21.7,32,23,50.8c0.2,2.5,0.2,5,0.3,7.5c-0.1,9.8-0.9,19.7-3.5,29.2c-1.8,6.6-4.3,13-7.7,18.9
		c-2.4,3.8-5.1,7.4-8.2,10.5c-2.1,2.1-4.2,4.2-6.5,6c-1-0.6-2.1-1.1-3.2-1.7c-1.8,1-3.4,2.7-5.7,2.7c-2.9,0.2-5.7,1.5-8.5,2
		c2.8-4.2,8.5-7.3,7.5-13c-1.5,0.1-3.2,0.2-4.8,0.2c0.6-2.1,1-4.1,1.5-6.2c-0.6-0.3-1.5-1-2.1-1.4c1.8-2,3.5-3.9,5.2-6
		c-3.5,0.9-6.7,2.7-10.1,3.9c6.4-9.4,12.2-19.3,16.9-29.7c2.7-6.4,6.3-12.8,6.4-19.9c0.3-4.5-2.7-8.5-2.8-13
		c-0.3-5.2-0.3-11.2-4.8-14.9c-7.5,1.5-15,0.1-22.6-0.8c-2-0.3-4,0.1-6,0.3c-0.3-0.3-0.8-0.9-1-1.2c-2.3-2.3-4.8-4.8-8-5.9
		c-2.9-0.4-5.9-0.1-8.7-0.1l-0.3-0.1c-3.3-1.4-6.6-3.3-10.3-2.7c-3.1,0.3-4.9,3.1-7.3,4.5c-2.5,1.5-5,3.3-6.9,5.6
		c2.5,4.3,7,6.6,11.7,7.9c-0.2,2.8-0.3,5.6-0.7,8.3c-2.9,0.9-5.5,2.3-8.1,4.1c-1.3-2.8-2-5.9-3.2-8.7c-1.3-1.8-3.2-3.1-5-4.5
		c-0.3,1.2-0.8,2.4-1.1,3.6c-0.9,0.4-1.7,0.9-2.7,1.4c-0.1-2.1-0.2-4.2-0.6-6.3c-0.9-3.9-3.5-6.7-5-10.3c0.2-3.6,1.3-7.2,1.4-10.8
		c-1.8,0.8-3.6,1.4-5.4,2.2c-2.4,0.9-3.6,3.5-5.7,5c-2.1,0.9-4.2,1.2-6.3,1.8l0.3-0.8c1.9-1.7,2.4-4.1,2.9-6.4
		c-1.2,0.6-2.4,1.1-3.6,1.8c-1.5-2.1,0.8-3.5,2.1-5c-2-1.8-4.5-3.2-7.2-2.2c-4.5,1.5-6.4,6.5-7,10.9c-1.9,0.1-3.6,0.1-5.5,0.1
		c0.8-1.3,1.4-2.7,2.1-4c-0.9-2-2.9-2.8-4.9-3.4c0.1-5.1,0-10,0-15c0-1.5,0.1-2.9,0.1-4.4C74.4,69.8,73.8,66.7,75,64.1L75,64.1z"/>
	<path class="st17" d="M188.4,71.3c0.2,0.1,0.6,0.3,0.8,0.3c2.1,1.1,4.2,2.4,6.2,3.9l0.3,0.3c-2.4,2.9-4.9,5.9-7.5,8.6
		c-2.1-1.5-4.4-2.9-6.6-4.2C184.2,77.5,186.9,74.8,188.4,71.3L188.4,71.3z"/>
	<path class="st18" d="M58.8,108c1.9-12.9,5.7-26.2,15.6-35.3c0,1.5,0,2.9-0.1,4.4c-6.5,6.9-10.3,15.9-12.1,25
		c-0.7,3.1-2.1,6-3.3,8.8C58.8,110.1,58.7,109.1,58.8,108L58.8,108z"/>
	<path class="st19" d="M198.2,77.6c1.8-1.3,3.4-2.7,5.1-4c0.6,1.9,1.1,3.8,1.8,5.6c-0.4,0.7-1.4,2-1.9,2.7
		C201.7,80.3,200,78.9,198.2,77.6L198.2,77.6z"/>
	<path class="st20" d="M62.2,102.1c1.8-9.2,5.5-18.2,12.1-25c0,5.1,0.1,10,0,15c-3.1,2.7-4.5,7-8.4,8.5c-0.6,2.7-1.5,5.3-3.2,7.5
		c-1.1,1.5-2.4,2.9-3.6,4.4c0-0.3-0.1-1.1-0.1-1.5C60.1,108.1,61.4,105.2,62.2,102.1L62.2,102.1z"/>
	<path class="st21" d="M89.4,88.5c2.7-0.9,5.3,0.3,7.2,2.2c-1.3,1.4-3.6,2.8-2.1,5c1.2-0.6,2.4-1.1,3.6-1.8c-0.4,2.3-1,4.8-2.9,6.4
		c-2.4-0.3-5-0.3-7.4-0.1c0.2-1.5,0.3-3,0.7-4.4c1.1-1.2,2.7-1.8,4.1-2.5c-0.9-0.9-1.5-2-2.7-2.5c-2.7,0.8-5.3,2.7-5.7,5.7
		c0.1,1.3,0.3,2.7,0.4,3.9c-0.4,0-1.3-0.1-1.8-0.1h-0.6l0.2-0.9C82.9,95.1,84.9,90.1,89.4,88.5L89.4,88.5z"/>
	<path class="st22" d="M200.5,90.3c2.2-0.8,4.5-1.5,6.9-2.1c1.8,3.4,1.1,7.2-0.7,10.5c0.9,0,1.7,0,2.5,0c0.2,2.9,0.1,7-3.3,8
		c-1.9-4.2-6.4-6.6-7.5-11.2C198.5,93.6,199.7,92,200.5,90.3L200.5,90.3z"/>
	<path class="st23" d="M84.1,96.5c0.3-2.9,3.1-5,5.7-5.7c1.1,0.6,1.8,1.7,2.7,2.5c-1.4,0.8-3,1.3-4.1,2.5c-0.3,1.4-0.4,2.9-0.7,4.4
		c-0.9,0.1-2.4,0.2-3.2,0.2C84.4,99.1,84.2,97.8,84.1,96.5L84.1,96.5z"/>
	<path class="st24" d="M106.9,94.4c1.8-0.9,3.6-1.5,5.4-2.2c-0.1,3.6-1.2,7.2-1.4,10.8c1.4,3.5,4.1,6.5,5,10.3
		c0.3,2.1,0.4,4.2,0.6,6.3c0.9-0.4,1.7-0.9,2.7-1.4c0.3-1.2,0.8-2.4,1.1-3.6c1.7,1.5,3.5,2.8,5,4.5c1.2,2.8,1.9,6,3.2,8.7
		c2.4-1.8,5.1-3.2,8.1-4.1c0.3-2.8,0.4-5.6,0.7-8.3c0-0.3,0-0.9,0-1.2c-1.7-1.4-4.3-2.2-4.5-4.8c-0.2-3.2,1.8-5.9,4-7.9
		c0.7,0.1,1.2,0.3,1.9,0.3c1.2-0.1,1.8-0.9,1.8-2.1c1.5-0.1,3.3,0,4.9,0.1c-1.7,2.2-3.8,4.4-6.6,4.9c0,1.5,0,3,0.1,4.5
		c-0.1,1.5-0.3,3.1-0.3,4.5v1c0,3.5,0,7.2,0.1,10.8c0,18-0.1,35.9,0,53.8c0.1,0.3,0.3,1,0.3,1.4c8.1-0.6,17.2,2,24.3-3.3
		c9.8-7.1,13.9-19.5,14.9-31c1.1-13.7-1.3-28.4-10-39.5c2-0.3,4-0.7,6-0.3c7.5,0.9,15,2.3,22.6,0.8c4.3,3.8,4.3,9.7,4.8,14.9
		c0.2,4.5,3.1,8.5,2.8,13c-0.1,7.2-3.8,13.5-6.4,19.9c-4.8,10.4-10.5,20.2-16.9,29.7c3.3-1.3,6.5-3.1,10.1-3.9c-1.7,2.1-3.4,4-5.2,6
		c0.6,0.3,1.5,1,2.1,1.4c-0.4,2.1-1,4.1-1.5,6.2c1.5-0.1,3.2-0.2,4.8-0.2c0.9,5.7-4.8,9-7.5,13c2.9-0.4,5.6-1.8,8.5-2
		c2.1,0,3.9-1.7,5.7-2.7c1,0.6,2.1,1.1,3.2,1.7c-11.3,8.6-25.5,13.2-39.7,12.9c-12.3,0-24.7,0.1-36.9-0.1c-5.3,0-10.6,0-16,0
		c-3.9,0-7.9,0-11.7,0c-1.1,0-2.3,0-3.4,0c-5.2,0-10.5,0.2-15.7,0c-1.9,0.2-2.7-1.9-2.7-3.3c-0.3-4.2,0-8.3-0.1-12.5
		c0-4.8,0.1-9.5-0.1-14.2c0-2.1,0.3-4.1,0.8-6.1c6.6-0.7,13.3,0.2,19.8-0.3c0-2.2,0-4.5,0-6.7c0-1.8,0-3.4,0-5.2
		c0.3,1.5,0.9,3,1.4,4.5c3.1-0.6,6.6-1.4,9,1.4c5.5-4.9,13.6-4.6,20.1-7.4c1.4-3.8,4.8-6.7,4.3-11.1c-0.3-0.1-0.9-0.2-1-0.3
		c-6.9-2.1-13.4,2.2-20.1,2.8c-4.5-0.4-8.7-2.7-11.7-6.1c0.3-1,0.6-2,0.8-3c-0.7-0.6-1.3-1.1-2-1.7c-0.1-2-0.1-4,0-6
		c0.7-2.3,2.1-4.2,4.3-5.2c0.7-3.5,1.3-7.1,1.9-10.6c-1.9-2.3-4.3-3.9-7.1-5v-0.3c0-2.3,0-4.8,0-7.1c0.1-4.1,0-8.2,0-12.3
		c0-0.2,0.1-0.8,0.1-0.9c2.1-0.6,4.3-0.9,6.3-1.8C103.3,97.8,104.4,95.4,106.9,94.4L106.9,94.4z"/>
	<path class="st25" d="M65.7,100.7c3.9-1.5,5.3-5.9,8.4-8.5c0,2.3,0.1,4.6,0.2,7.1c0.7,0.1,2,0.3,2.7,0.3c1.9,0,3.6-0.1,5.5-0.1
		l-0.2,0.9c-2.5,0-5.1-0.1-7.5-0.1c-0.3,1.4-0.6,2.8-0.6,4.3c-4.9,1.9-7.9,6.4-11.8,9.5c0-2,0.1-3.9,0.3-5.7
		C64.2,106,65.3,103.3,65.7,100.7L65.7,100.7z"/>
	<path class="st26" d="M74.2,92.2c2,0.7,4,1.4,4.9,3.4c-0.8,1.3-1.4,2.7-2.1,4c-0.7-0.1-2-0.3-2.7-0.3
		C74.2,96.8,74.2,94.5,74.2,92.2L74.2,92.2z"/>
	<path class="st21" d="M132.1,102c2.4-1.5,4.2-4.3,7.3-4.5c3.6-0.7,7,1.2,10.3,2.7c-1.5,0-3.2,0-4.8-0.1c-1.5-0.1-3.3-0.2-4.9-0.1
		c-1.3,0.1-1.9,0.8-1.8,2.1c-0.7-0.1-1.3-0.3-1.9-0.3c-2.2,2.1-4.2,4.8-4,7.9c0.2,2.4,2.8,3.3,4.5,4.8c0,0.3,0,0.9,0,1.2
		c-4.6-1.2-9.2-3.5-11.7-7.9C127.2,105.3,129.6,103.7,132.1,102L132.1,102z"/>
	<path class="st27" d="M74.7,100.3c2.5,0,5.1,0.1,7.5,0.1h0.6c1,2,2.3,3.8,4.4,4.9c0.6,0.4,1.2,0.9,1.8,1.5c-2,3-4.9,5.4-6.3,8.7
		c-1.4,0.6-2.8,1.2-4.2,1.7c-0.3-0.2-0.9-0.6-1.2-0.8c0.3-0.4,0.9-1.5,1.1-2c-1-0.3-2.1-0.4-3.2-0.8c-0.6-3-0.9-6.1-1.1-9.2
		C74.2,103.1,74.5,101.7,74.7,100.3L74.7,100.3z"/>
	<path class="st28" d="M82.9,100.4c0.4,0,1.3,0.1,1.8,0.1c-0.2,3.8,4.1,3.3,6.6,2.9c-1.1-1.1-2.2-2.1-3.4-3.2c2.4-0.3,5-0.2,7.4,0.1
		l-0.3,0.8c0,0.2-0.1,0.7-0.1,0.9c-2.8,0.6-4.6,3.5-7.6,3.2C85.2,104.1,83.9,102.4,82.9,100.4L82.9,100.4z"/>
	<path class="st29" d="M84.6,100.5c0.9-0.1,2.4-0.2,3.2-0.2c1.1,1,2.3,2.1,3.4,3.2C88.7,103.8,84.4,104.2,84.6,100.5L84.6,100.5z"/>
	<path class="st30" d="M138.3,102c-0.2-1.4,0.4-2.1,1.8-2.1C140.1,101.2,139.5,102,138.3,102L138.3,102z"/>
	<path class="st31" d="M144.9,100c1.5,0.1,3.2,0,4.8,0.1l0.3,0.1c2.1,1.3,4.1,2.8,5.9,4.5c-2,4.2-5.5,7.7-9.8,9.5
		c-2.7,0.8-5.4,0.6-8.1,0.7v-1c2.1,0,4-0.1,6.1-0.2c-2.2-1-4.4-2.2-5.7-4.4c-0.1-1.5-0.1-3-0.1-4.5
		C141.1,104.3,143.4,102.2,144.9,100L144.9,100z"/>
	<path class="st32" d="M150.1,100.1c2.9,0,5.9-0.3,8.7,0.1c3.2,1.1,5.6,3.5,8,5.9c-3,3.1-5,6.9-7.5,10.4c-2.5,3.4-7.1,4.1-10.6,6.1
		c-3.3,1.8-6.9,3-10.5,3.3c0-3.6,0-7.2-0.1-10.8c2.7-0.1,5.4,0.1,8.1-0.7c4.3-1.8,7.9-5.3,9.8-9.5
		C154.3,102.9,152.2,101.5,150.1,100.1L150.1,100.1z"/>
	<path class="st33" d="M87.2,105.2c3,0.3,4.9-2.7,7.6-3.2c0,4.1,0.1,8.2,0,12.3c-2.2,0.6-4.5,1.8-7,0.9c-1.8-0.7-3.5-0.4-5.2,0.3
		c1.4-3.3,4.3-5.7,6.3-8.7C88.4,106.2,87.7,105.7,87.2,105.2L87.2,105.2z"/>
	<path class="st34" d="M145.3,102.4C148.3,102.6,143.7,105.1,145.3,102.4L145.3,102.4z"/>
	<path class="st35" d="M62.3,114.1c4-3.2,7-7.6,11.8-9.5c0.2,3.1,0.6,6.2,1.1,9.2c1,0.3,2.1,0.4,3.2,0.8c-0.3,0.4-0.9,1.5-1.1,2
		c-3.2,2.4-7.3,4.2-8.8,8.1c-1.8,4.9-1.5,10.1-2.2,15.1c-1.1-1.1-2.9-2.1-2.8-3.9c-0.3-3.9,0.8-7.5,1-11.3c-1.8,2.5-2.8,5.4-3.9,8.3
		c-0.4,1.8-2.7,2.2-4,3.1c-1.4,0.6-2.8,1-4.2,1.5c0.2-1.5,0.3-3.1,0.7-4.6c1.5-0.2,2.9-0.3,4.4-0.4c-1.5,0.1-3.2,0.2-4.8,0.3
		c1.1-6.9,1.9-14.3,6.2-20c1.2-1.4,2.5-2.9,3.6-4.4C62.4,110.2,62.4,112.2,62.3,114.1L62.3,114.1z"/>
	<path class="st36" d="M146.2,105.9C149,104.5,146.6,108.9,146.2,105.9L146.2,105.9z"/>
	<path class="st37" d="M166.9,106.1c0.3,0.3,0.8,0.8,1,1.2c8.6,11.2,11.1,25.8,10,39.5c-1.5,0.9-3,1.5-4.3,2.5
		c-2.3,1.5-3.6,4.4-6.1,6c-4.2,2.1-9.4,1.5-13,4.6c-2.1,2.4-3.5,5.3-6,7.4c1.3,1.3,2.7,2.7,3.9,4c0.7,1.1,0.3,2.5,1,3.6
		c1.2,0.9,2.5,1.7,3.9,2.5c-3.3,0.4-6.7,0.3-10.2-0.1c-3.2-0.6-6,1.2-8.7,2.2c-0.1-17.9,0-35.9,0-53.8c3.8-0.3,7.3-1.5,10.5-3.3
		c3.5-2,8.1-2.5,10.6-6.1C161.9,113,163.9,109.2,166.9,106.1L166.9,106.1z"/>
	<path class="st37" d="M138.5,109.3c1.3,2.1,3.4,3.3,5.7,4.4c-2.1,0.1-4,0.2-6.1,0.2C138.2,112.4,138.4,110.9,138.5,109.3
		L138.5,109.3z"/>
	<path class="st38" d="M82.8,115.5c1.7-0.8,3.4-0.9,5.2-0.3c2.3,0.9,4.6-0.3,7-0.9c0,2.3,0,4.8,0,7.1c-4.5-1.5-9.1-2.8-13.8-2.5
		c-0.9-0.6-1.5-1.1-2.4-1.7C79.9,116.6,81.3,116.1,82.8,115.5L82.8,115.5z"/>
	<path class="st39" d="M68.5,124.5c1.5-3.9,5.7-5.7,8.8-8.1c0.3,0.2,0.9,0.6,1.2,0.8c0.9,0.6,1.5,1.1,2.4,1.7
		c-4.3,0.2-8.5,2.9-9,7.4c-0.8,5.7-2.7,11.2-3.3,16.9c-0.6,4.1,3.3,6.9,4.4,10.4c0.3,2,0.4,3.9,1,5.9c-0.6,2.5-1,5.1-1.5,7.5
		c-0.9,0-1.7,0-2.5,0.1c-0.9,2.1-2,4-2.7,6.2c0.8,4.1,2.1,8.1,3.1,12.2c-0.2,0.4-0.6,1.4-0.8,1.9c-2.1-2.2-3.2-5.3-5.9-6.9
		c-0.7-1.1-1.4-2.3-2.1-3.4c-4.1-7-7-14.8-8.2-23c0.3-2.3,0.9-4.8,1.2-7.1c1.7,3.4,1.5,7.5,3.9,10.6c1.5-0.3,3.1-0.9,4.6-1l0.8,0.9
		c1.7-2.4,3.2-5,3.4-8c-1.1,1.5-2.1,3-3,4.5c-1.3-2.1-2.9-4-3.6-6.3c-0.3-2.7-0.3-5.4-0.6-8.1c-1,0.2-2,0.3-2.9,0.6l0.8-0.8
		c0.9-0.9,1.7-2,2.5-3c-1.1-0.2-2.3-0.3-3.4-0.3h-0.8c1.4-0.9,3.5-1.3,4-3.1c1-2.9,2.1-5.7,3.9-8.3c-0.2,3.8-1.2,7.5-1,11.3
		c-0.1,1.9,1.5,2.8,2.8,3.9C66.9,134.5,66.7,129.3,68.5,124.5L68.5,124.5z"/>
	<path class="st31" d="M72,126.2c0.4-4.5,4.6-7.2,9-7.4c4.8-0.3,9.4,0.9,13.8,2.5v0.3c0,4.2,0,8.3,0,12.5v0.8
		c-1.4,1.4-2.7,2.8-4.1,4.2c-2.2,2-5.2,2.7-8.1,3.4c-0.1,0.7-0.3,1.8-0.6,2.4s-0.4,2.1-0.6,2.7c-4-3.8-6.3-8.7-9-13.4
		C71.2,132,71.7,129,72,126.2L72,126.2z"/>
	<path class="st40" d="M94.8,121.7c2.8,1,5.2,2.7,7.1,5c-0.7,3.5-1.2,7.1-1.9,10.6c-2.1,1.1-3.8,2.9-4.3,5.2
		c0.2-2.8-0.3-5.6-0.9-8.3C94.8,130.1,94.8,125.9,94.8,121.7L94.8,121.7z"/>
	<path class="st41" d="M31.2,122.9c3-0.3,6-0.1,9-0.2l-1.3,1.7c4.6-0.3,9.3,0,13.8,1.3c-4.1-0.9-8.2-1.5-12.4-1.1
		c-1.5,0.2-2.9-0.6-4.2-1.3C34.7,123,32.3,124.7,31.2,122.9L31.2,122.9z"/>
	<path class="st42" d="M68.7,143.2c0.6-5.7,2.5-11.2,3.3-16.9c-0.3,2.7-0.9,5.7,0.6,8.2c2.7,4.6,5.1,9.6,9,13.4
		c0.2-0.7,0.4-2.1,0.6-2.7c1.5,0.1,2.9,0.2,4.4,0.3c2.1,1.7,4.3,3.2,6.1,5.1c2-3.6-0.8-7.2-0.4-10.9c-0.3-0.1-1.1-0.3-1.5-0.3
		c1.3-1.4,2.7-2.9,4.1-4.2c0,6.3,0,12.7,0,19c-7.2-2.2-14.8-4.9-22.4-2.4c7,3.2,14.9,3.4,22.4,5.4c0,2.1,0,4.2,0,6.3
		c-3.4,1.5-6.5,3.6-10,5.4c-3.4-2.3-6-5.7-9.4-8.1c-0.3-0.3-1-0.9-1.3-1.2c-0.4-2-0.7-3.9-1-5.9C72,149.9,68.2,147.2,68.7,143.2
		L68.7,143.2z"/>
	<path class="st43" d="M40.2,136.6c3.5-2,7.6-2.9,11.6-3.6c-0.3,0.9-1.1,1.4-2.1,1.7C46.6,135.5,43.5,136.6,40.2,136.6L40.2,136.6z"
		/>
	<path class="st0" d="M226.3,132.6c1.9,4.9,1.8,10.3,3.6,15.1c2,6.9,5.7,13.6,5.1,21.1c-0.9-1.5-1.9-3.2-1.8-5.1
		c0-4-2.1-7.5-3.1-11.3c-1.1-4.2-2.3-8.3-3.6-12.4C226.5,137.5,226.5,135.1,226.3,132.6L226.3,132.6z"/>
	<path class="st44" d="M94.8,134.2c0.6,2.7,1,5.5,0.9,8.3c-0.1,2-0.1,4,0,6c0.7,0.6,1.3,1.1,2,1.7c-0.3,1-0.6,2-0.8,3
		c-0.3,1.4-0.3,3-0.3,4.5c10.2,3.5,22.9,6.1,32.2-1.2c0.3,0.1,0.9,0.2,1,0.3c0.4,4.3-2.9,7.3-4.3,11.1c-6.5,2.7-14.7,2.4-20.1,7.4
		c-2.3-2.8-5.7-2-9-1.4c-0.4-1.5-1-3-1.4-4.5c-0.1-2-0.1-3.9-0.1-5.7c0-2.1,0-4.2,0-6.3c0-1,0-2,0-3c0-6.3,0-12.7,0-19L94.8,134.2
		L94.8,134.2z"/>
	<path class="st45" d="M57.4,135.9c1.1,0.1,2.3,0.3,3.4,0.3c-0.9,1-1.7,2-2.5,3c-2,1-3.9,2-5.7,2.9c0-1-0.1-3-0.2-3.9
		C54,137.4,55.8,136.6,57.4,135.9L57.4,135.9z"/>
	<path class="st35" d="M57.5,139.9c0.9-0.2,2-0.3,2.9-0.6c0.2,2.7,0.1,5.4,0.6,8.1c0.8,2.3,2.3,4.3,3.6,6.3
		c-0.4,0.9-0.9,1.5-1.3,2.4c-1.5,0.3-3.2,0.7-4.6,1c-2.3-3.1-2.1-7.3-3.9-10.6c-0.3,2.3-0.9,4.8-1.2,7.1c-0.4-3.5-1-7.1-1-10.7
		C53.9,141.6,56,141.1,57.5,139.9L57.5,139.9z"/>
	<path class="st46" d="M82.8,142.7c2.8-0.8,5.7-1.5,8.1-3.4c0.3,0.1,1.1,0.3,1.5,0.3c-0.3,3.8,2.3,7.3,0.4,10.9
		c-1.8-2-4-3.4-6.1-5.1c-1.5-0.1-2.9-0.2-4.4-0.3C82.3,144.5,82.6,143.3,82.8,142.7L82.8,142.7z"/>
	<path class="st47" d="M226.5,140.1c1.2,4.1,2.4,8.3,3.6,12.4c0.9,3.8,3.1,7.3,3.1,11.3c-0.1,1.9,0.9,3.5,1.8,5.1
		c-0.8,5.3,2.1,10.2,1.8,15.4c-0.1,2-0.3,3.9-0.3,5.7c-0.8-1.2-1.5-2.3-2.4-3.3c-1,3.2-0.3,7-2.9,9.5c-1.1-1.5-1.7-4.2-3.9-4.5
		c-3.3-0.6-6.4,1.1-8.6,3.4c-2.9,3.1-7.5,3.3-11.4,3.6c3.2-3.2,5.7-6.9,8.2-10.5c2.1,0.7,3.6-1.2,5.2-2.3c1.5-1.4,3.6-1.8,5.5-2.8
		c1.5-2.4,2.7-5.1,3.3-7.9c-0.4-1.8-1.4-3.5-1.8-5.3c-0.9,0.2-1.9,0.4-2.8,0.7c-0.3-0.3-1.2-0.9-1.7-1.3
		C225.6,159.7,226.5,149.9,226.5,140.1L226.5,140.1z"/>
	<path class="st48" d="M48.5,144c1.4-0.7,1.4,1.2,0.3,1.5c-1,0.4-2.1,1.5-3.3,1C45.3,145.3,47.4,144.7,48.5,144L48.5,144z"/>
	<path class="st49" d="M173.4,149.2c1.4-0.9,2.9-1.7,4.3-2.5c-1,11.6-5.1,24-14.9,31c-7,5.3-16.3,2.7-24.3,3.3
		c-0.1-0.3-0.3-1-0.3-1.4c2.8-1.1,5.7-2.9,8.7-2.2c3.3,0.4,6.9,0.6,10.2,0.1c-1.3-0.9-2.7-1.5-3.9-2.5c-0.7-1.1-0.3-2.5-1-3.6
		c-1.2-1.4-2.7-2.7-3.9-4c2.4-2.1,3.9-5.1,6-7.4c3.8-3.1,9-2.5,13-4.6C169.8,153.7,171.1,150.9,173.4,149.2L173.4,149.2z"/>
	<path class="st50" d="M64.7,153.9c0.9-1.5,1.9-3.1,3-4.5c-0.3,3-1.9,5.5-3.4,8l-0.8-0.9C63.9,155.4,64.2,154.8,64.7,153.9
		L64.7,153.9z"/>
	<path class="st28" d="M72.5,151.7c7.5-2.4,15.3,0.2,22.4,2.4c0,1,0,2,0,3C87.4,155.1,79.4,154.9,72.5,151.7L72.5,151.7z"/>
	<path class="st41" d="M96.6,157.6c0-1.5,0-3,0.3-4.5c2.9,3.4,7.2,5.6,11.7,6.1c6.7-0.6,13.2-5,20.1-2.8
		C119.5,163.7,106.8,161.2,96.6,157.6L96.6,157.6z"/>
	<path class="st51" d="M74.1,159.4c0.3,0.3,1,0.9,1.3,1.2c0.3,4.5,3.1,8.3,5.2,12.3c1.7,3.2,4.6,5.5,7.6,7.5
		c2.1,0.6,4.3,0.4,6.5,0.7c-6.6,0.4-13.3-0.3-19.8,0.3c-0.4,2-0.9,4-0.8,6.1c-1.2-0.8-2.3-1.5-3.5-2.1c-0.9-4.1-2.3-8.1-3.1-12.2
		c0.7-2.1,1.7-4.1,2.7-6.2c0.9,0,1.7-0.1,2.5-0.1C73.1,164.4,73.6,161.8,74.1,159.4L74.1,159.4z"/>
	<path class="st52" d="M75.5,160.6c3.4,2.3,6,5.7,9.4,8.1c0.9,0.9,1.9,1.8,2.8,2.7c2.1,1.5,4.6,2.1,7.1,2.8c0,2.2,0,4.5,0,6.7
		c-2.1-0.2-4.4-0.1-6.5-0.7c-3-2-5.9-4.3-7.6-7.5C78.6,168.9,75.8,165.2,75.5,160.6L75.5,160.6z"/>
	<path class="st53" d="M85,168.7c3.3-1.8,6.4-3.9,10-5.4c0,2,0,3.9,0.1,5.7c-2.5,0.3-5.4,0.2-7.1,2.3
		C86.9,170.5,85.9,169.6,85,168.7L85,168.7z"/>
	<path class="st54" d="M87.7,171.5c1.8-2.1,4.6-2,7.1-2.3c0,1.8,0,3.4,0,5.2C92.4,173.6,89.7,173.1,87.7,171.5L87.7,171.5z"/>
	<path class="st55" d="M223.1,169.2c0.3,0.3,1.2,0.9,1.7,1.3c0.9-0.2,1.9-0.4,2.8-0.7c0.3,1.9,1.3,3.5,1.8,5.3
		c-0.7,2.8-1.8,5.4-3.3,7.9c-1.8,1-3.9,1.5-5.5,2.8c-1.5,1-3.1,3-5.2,2.3C218.7,182.3,221.3,175.9,223.1,169.2L223.1,169.2z"/>
	<path class="st56" d="M61.9,176.9c0.7,1.1,1.4,2.2,2.1,3.4c2,7.6,4.6,15.7,10.3,21.3c0.1,4.2-0.2,8.3,0.1,12.5
		c0,1.5,0.8,3.5,2.7,3.3c5.2,0.2,10.5,0,15.7,0c-2.1,2.7-0.6,5.9-0.4,8.8c0.1,3.5,2,6.6,2.4,10.1c-1.5,3.8-3.9,6.9-5.9,10.5
		c-2,0.3-4-0.4-5.9,0.1c-1.1,1.5-1.8,3.8-3.9,4.1C69,244.8,59.5,237.6,51.5,229c3.5-7.3,6.6-15.1,5.9-23.3c-0.6-3.3,2.1-6.1,2.5-9.3
		c-0.1-1.9-1.5-3.3-2.3-5C60.6,187.2,61.8,182,61.9,176.9L61.9,176.9z"/>
	<path class="st57" d="M64.1,180.3c2.7,1.5,3.9,4.6,5.9,6.9c0.2-0.4,0.6-1.4,0.8-1.9c1.2,0.8,2.3,1.5,3.5,2.1
		c0.1,4.8,0.1,9.5,0.1,14.2C68.7,195.9,66,187.9,64.1,180.3L64.1,180.3z"/>
	<path class="st58" d="M234,186.7c0.9,1,1.7,2.1,2.4,3.3c0.4,5.5,1.7,11.1,1.8,16.6c0.1,7.5,0.3,15.1,0.7,22.6
		c-8.4,8.8-18.1,16.5-28.7,22.6c-4-2.9-8.7-0.7-12.3,1.7c0.7-1.3,1.7-2.4,2.8-3.3c2.2-1.9,3.2-4.9,5.5-6.7c2.4-2.1,5.7-3.4,7.5-6.2
		c2-4.2,6.2-6.4,8.7-10.2c2.3-3.3,6.3-6.5,5.9-11.2c-0.2-3.9,0.7-7.7,1.1-11.6c0.1-2.8,0.6-5.7,1.8-8.2
		C233.7,193.7,233,189.8,234,186.7L234,186.7z"/>
	<path class="st59" d="M218.5,195.1c2.2-2.3,5.3-3.9,8.6-3.4c2.3,0.2,2.8,2.9,3.9,4.5c-1.2,2.5-1.5,5.4-1.8,8.2
		c-0.4,3.9-1.2,7.6-1.1,11.6c0.3,4.5-3.5,7.6-5.9,11.2c-2.5,3.8-6.7,6-8.7,10.2c-1.3,0-2.7,0-4,0.1c3.3-5.2,5.5-11.2,8.2-16.6
		c0.7-0.9,0.3-2,0-2.9c-0.7-1.5,0.2-3.3,0.1-5c-0.3-1.7-1-3.3-1.5-4.9c-2.9-0.6-5.7-1.3-8.7-1.1c-3.6,0.7-6.3,3.8-9.5,5.2
		c-1.5,0.7-3.3,0.9-4.9,1.8c-2.9,2.5-3.6,6.9-7,8.8c-3.3,2.2-6.3,5.1-9.3,7.5c-1.9,1.7-4.5,0.4-6.7,0.9c-2,1-3.3,2.8-5.1,3.9
		c-2.3,0.9-5.2,0.4-7.2,2.2c-3.3,2.8-8.1,2-11.4,4.5c-3.9,2-5.6,6.3-9.3,8.5c-2.8,1.7-5,4.1-7.2,6.4c-0.6-0.8-1.2-1.5-1.8-2.1
		c-3.1,1.8-5.6,4.6-9.3,5.4c-1.3-1.5-2.5-3.3-4.8-3.4c0.3-0.8,0.8-1.5,1-2.2c-0.8-1-1.7-2-3-1.8c-3.3-0.3-6.9,0.3-10.2,0.1
		c-2.3-1.2-4.3-3.1-5.6-5.3c2.7-3.1,3.9-7,6-10.4c1.3-1.8,3.3-0.3,5,0c0.7-1.5,1.4-3.1,2.1-4.6c0.9,0.1,1.9,0.2,2.7,0.3
		c2.2-2,3.4-4.6,4.4-7.5c1.5-0.4,3-0.9,4.4-1.3c0-2.4,1.1-4.5,2.9-6.2c12.3,0.1,24.7,0,36.9,0.1c14.2,0.3,28.4-4.3,39.7-12.9
		c2.3-1.8,4.5-3.9,6.5-6C211,198.4,215.7,198.2,218.5,195.1L218.5,195.1z"/>
	<path class="st60" d="M198.2,212c3.3-1.5,5.9-4.5,9.5-5.2c3-0.2,5.9,0.6,8.7,1.1c0.6,1.5,1.3,3.2,1.5,4.9c0.1,1.7-0.8,3.3-0.1,5
		c0.3,0.9,0.6,2,0,2.9c-2.7,5.6-4.9,11.4-8.2,16.6c1.3,0,2.7,0,4-0.1c-2,2.7-5.1,3.9-7.5,6.2c-2.3,1.8-3.3,4.9-5.5,6.7
		c-1.1,0.9-2.1,2.1-2.8,3.3c-4.9,3.2-10.5,4.6-15.7,7.3c0-0.9-0.1-1.9-0.1-2.9c-3.8,0.9-7.5,1.5-11.2,2.7c-3.2,0.9-5.1,3.8-7.9,5.2
		c-2.2,0.9-4.8,1-6.4,2.9c-17,1.4-34.2-0.3-50.5-5.3c1.8-0.6,3.6-1.2,5.4-1.9c0.3-2,1.3-3.6,2.7-5.1c2.2,0.1,3.4,2,4.8,3.4
		c3.6-0.8,6.2-3.6,9.3-5.4c0.6,0.8,1.2,1.5,1.8,2.1c2.2-2.3,4.4-4.8,7.2-6.4c3.8-2.1,5.4-6.5,9.3-8.5c3.4-2.5,8.2-1.7,11.4-4.5
		c2-1.8,4.8-1.4,7.2-2.2c1.9-1.1,3.2-3,5.1-3.9c2.2-0.3,4.9,0.9,6.7-0.9c3.1-2.5,6.1-5.3,9.3-7.5c3.3-2.1,4.1-6.4,7-8.8
		C194.8,212.9,196.5,212.7,198.2,212L198.2,212z"/>
	<path class="st61" d="M92.6,217.6c1.1,0,2.3,0,3.4,0c2.7,3.2,6.1,6.6,10.5,6.6c3.4-0.3,1.8-4.5,1.3-6.6c5.3,0,10.7,0,16,0
		c-1.8,1.7-2.9,3.8-2.9,6.2c-1.5,0.4-3,0.9-4.4,1.3c-0.9,2.8-2.1,5.5-4.4,7.5c-0.9-0.1-1.9-0.2-2.7-0.3c-0.7,1.5-1.4,3.1-2.1,4.6
		c-1.5-0.3-3.8-1.9-5,0c-2.1,3.3-3.3,7.3-6,10.4c-0.4-0.9-0.9-1.9-1.4-2.8c-2.1,0.9-4.3,1.9-6.4,2.7c2-3.4,4.4-6.7,5.9-10.5
		c-0.6-3.4-2.4-6.5-2.4-10.1C92,223.4,90.6,220.3,92.6,217.6L92.6,217.6z"/>
	<path class="st57" d="M96,217.6c3.9,0,7.9,0,11.7,0c0.4,2.1,2.1,6.3-1.3,6.6C102.1,224.2,98.8,220.8,96,217.6L96,217.6z"/>
	<path class="st62" d="M88.7,247c2.1-0.9,4.3-1.7,6.4-2.7c0.4,0.9,0.9,1.9,1.4,2.8c1.4,2.2,3.3,4.1,5.6,5.3
		c3.3,0.3,6.9-0.4,10.2-0.1c1.4-0.2,2.2,0.8,3,1.8c-0.3,0.8-0.7,1.5-1,2.2c-1.4,1.4-2.5,3-2.7,5.1c-1.8,0.7-3.6,1.3-5.4,1.9
		c-9.4-3.2-18.5-7.2-27.2-12.2c2.1-0.3,2.7-2.7,3.9-4.1C84.6,246.5,86.7,247.3,88.7,247L88.7,247z"/>
	<path class="st63" d="M197.8,253.5c3.6-2.3,8.3-4.5,12.3-1.7c-16.3,9.4-34.6,15.4-53.5,16.8c1.7-1.9,4.2-2.1,6.4-2.9
		c2.8-1.5,4.6-4.4,7.9-5.2c3.6-1,7.4-1.8,11.2-2.7c0,0.9,0.1,1.9,0.1,2.9C187.2,258.3,192.9,256.7,197.8,253.5L197.8,253.5z"/>
</g>
<g>
	<g>
		<g>
			
				<linearGradient id="SVGID_1_" gradientUnits="userSpaceOnUse" x1="276.9771" y1="475.857" x2="411.3342" y2="475.857" gradientTransform="matrix(0.9628 0.2703 -0.2703 0.9628 8.9098 -343.2578)">
				<stop  offset="0" style="stop-color:#09005D"/>
				<stop  offset="1" style="stop-color:#1A0F91"/>
			</linearGradient>
			<path class="st64" d="M168.3,121.7c-7.6,24.2-33.2,107.3-40.5,137.5c-0.7,3.1,1.4,6.6,4.8,7.6c17.5,5.4,81.5,24.8,110.6,31.9
				c6.1,1.4,11.9-1.6,13.7-6.8c7.8-25.3,29.3-96.8,35.3-130.4c0.7-4-1.9-8.1-6.2-9.9c-18.7-7.1-82.2-29.4-107.5-35
				C173.9,115.7,169.5,117.9,168.3,121.7z"/>
			<path class="st65" d="M170.2,134l-5.7,20.6c-1,4,1.2,8,5.2,9.2l98.3,27.7c4,1,8-1.2,9.2-5.2l5.7-20.6c1-4-1.2-8-5.2-9.2
				l-98.3-27.7C175.6,127.6,171.4,130,170.2,134z"/>
			<path class="st66" d="M278.1,164.1c-0.7-1.2-1.7-2.1-2.9-2.4l-91.6-27.4c-2.4-0.7-5,0.5-5.9,2.9l-7.6,19.9
				c-0.7,1.6,1.7,3.8,5.2,4.8l90.2,26.5c3.5,1,6.8,0.5,7.3-1.2l5.9-19.6C278.8,166.6,278.6,165.2,278.1,164.1z"/>
		</g>
		
			<linearGradient id="SVGID_2_" gradientUnits="userSpaceOnUse" x1="265.0023" y1="498.8684" x2="355.0108" y2="412.2143" gradientTransform="matrix(0.9628 0.2703 -0.2703 0.9628 8.9098 -343.2578)">
			<stop  offset="0" style="stop-color:#4F52FF"/>
			<stop  offset="1" style="stop-color:#4042E2"/>
		</linearGradient>
		<path class="st67" d="M181.3,189.4c-1,3.6-4.8,5.7-8.5,4.7l-8-2.3c-3.6-1-5.7-4.8-4.7-8.5l0,0c1-3.6,4.8-5.7,8.5-4.7l8,2.3
			C180.1,182.1,182.3,185.8,181.3,189.4L181.3,189.4z"/>
		
			<linearGradient id="SVGID_3_" gradientUnits="userSpaceOnUse" x1="279.9545" y1="514.3995" x2="369.963" y2="427.7455" gradientTransform="matrix(0.9628 0.2703 -0.2703 0.9628 8.9098 -343.2578)">
			<stop  offset="0" style="stop-color:#4F52FF"/>
			<stop  offset="1" style="stop-color:#4042E2"/>
		</linearGradient>
		<path class="st68" d="M211.1,197.9c-1,3.6-4.8,5.7-8.5,4.7l-8-2.3c-3.6-1-5.7-4.8-4.7-8.5l0,0c1-3.6,4.8-5.7,8.5-4.7l8,2.3
			C209.9,190.5,211.9,194.3,211.1,197.9L211.1,197.9z"/>
		
			<linearGradient id="SVGID_4_" gradientUnits="userSpaceOnUse" x1="294.1918" y1="529.188" x2="384.2004" y2="442.534" gradientTransform="matrix(0.9628 0.2703 -0.2703 0.9628 8.9098 -343.2578)">
			<stop  offset="0" style="stop-color:#4F52FF"/>
			<stop  offset="1" style="stop-color:#4042E2"/>
		</linearGradient>
		<path class="st69" d="M239.6,205.9c-1,3.6-4.8,5.7-8.5,4.7l-8-2.3c-3.6-1-5.7-4.8-4.7-8.5l0,0c1-3.6,4.8-5.7,8.5-4.7l8,2.3
			C238.4,198.4,240.7,202.2,239.6,205.9L239.6,205.9z"/>
		
			<linearGradient id="SVGID_5_" gradientUnits="userSpaceOnUse" x1="445.5742" y1="401.5641" x2="396.6059" y2="459.3031" gradientTransform="matrix(0.9628 0.2703 -0.2703 0.9628 8.9098 -343.2578)">
			<stop  offset="0" style="stop-color:#FF928E"/>
			<stop  offset="1" style="stop-color:#FE7062"/>
		</linearGradient>
		<path class="st70" d="M268.4,215c-1,3.6-4.8,5.9-8.5,4.8l-7.8-2.3c-3.6-1-5.9-4.8-4.8-8.5l0,0c1-3.6,4.8-5.9,8.5-4.8l7.8,2.3
			C267.2,207.4,269.4,211.2,268.4,215L268.4,215z"/>
		
			<linearGradient id="SVGID_6_" gradientUnits="userSpaceOnUse" x1="275.6599" y1="509.9387" x2="365.668" y2="423.2847" gradientTransform="matrix(0.9628 0.2703 -0.2703 0.9628 8.9098 -343.2578)">
			<stop  offset="0" style="stop-color:#4F52FF"/>
			<stop  offset="1" style="stop-color:#4042E2"/>
		</linearGradient>
		<path class="st71" d="M175.4,210c-1,3.6-4.8,5.7-8.5,4.7l-8-2.3c-3.6-1-5.7-4.8-4.7-8.5l0,0c1-3.6,4.8-5.7,8.5-4.7l8,2.3
			C174.4,202.6,176.5,206.4,175.4,210L175.4,210z"/>
		
			<linearGradient id="SVGID_7_" gradientUnits="userSpaceOnUse" x1="290.5063" y1="525.3599" x2="380.5148" y2="438.7059" gradientTransform="matrix(0.9628 0.2703 -0.2703 0.9628 8.9098 -343.2578)">
			<stop  offset="0" style="stop-color:#4F52FF"/>
			<stop  offset="1" style="stop-color:#4042E2"/>
		</linearGradient>
		<path class="st72" d="M205.2,218.3c-1,3.6-4.8,5.7-8.5,4.7l-8-2.3c-3.6-1-5.7-4.8-4.7-8.5l0,0c1-3.6,4.8-5.7,8.5-4.7l8,2.3
			C204.2,211.1,206.2,214.9,205.2,218.3L205.2,218.3z"/>
		
			<linearGradient id="SVGID_8_" gradientUnits="userSpaceOnUse" x1="304.8496" y1="540.2581" x2="394.8581" y2="453.6041" gradientTransform="matrix(0.9628 0.2703 -0.2703 0.9628 8.9098 -343.2578)">
			<stop  offset="0" style="stop-color:#4F52FF"/>
			<stop  offset="1" style="stop-color:#4042E2"/>
		</linearGradient>
		<path class="st73" d="M233.8,226.5c-1,3.6-4.8,5.7-8.5,4.7l-8-2.3c-3.6-1-5.7-4.8-4.7-8.5l0,0c1-3.6,4.8-5.7,8.5-4.7l8,2.3
			C232.7,219,234.8,222.8,233.8,226.5L233.8,226.5z"/>
		
			<linearGradient id="SVGID_9_" gradientUnits="userSpaceOnUse" x1="319.6961" y1="555.6793" x2="409.7046" y2="469.0253" gradientTransform="matrix(0.9628 0.2703 -0.2703 0.9628 8.9098 -343.2578)">
			<stop  offset="0" style="stop-color:#4F52FF"/>
			<stop  offset="1" style="stop-color:#4042E2"/>
		</linearGradient>
		<path class="st74" d="M263.5,234.8c-1,3.6-4.8,5.7-8.5,4.7l-8-2.3c-3.6-1-5.7-4.8-4.7-8.5l0,0c1-3.6,4.8-5.7,8.5-4.7l8,2.3
			C262.5,227.3,264.6,231.1,263.5,234.8L263.5,234.8z"/>
		<g>
			
				<linearGradient id="SVGID_10_" gradientUnits="userSpaceOnUse" x1="285.2262" y1="519.8754" x2="375.2347" y2="433.2212" gradientTransform="matrix(0.9628 0.2703 -0.2703 0.9628 8.9098 -343.2578)">
				<stop  offset="0" style="stop-color:#4F52FF"/>
				<stop  offset="1" style="stop-color:#4042E2"/>
			</linearGradient>
			<path class="st75" d="M170.4,228.4c-1,3.6-4.8,5.7-8.5,4.7l-8-2.3c-3.6-1-5.7-4.8-4.7-8.5l0,0c1-3.6,4.8-5.7,8.5-4.7l8,2.3
				C169.2,220.9,171.4,224.7,170.4,228.4L170.4,228.4z"/>
			
				<linearGradient id="SVGID_11_" gradientUnits="userSpaceOnUse" x1="300.0726" y1="535.2967" x2="390.0811" y2="448.6425" gradientTransform="matrix(0.9628 0.2703 -0.2703 0.9628 8.9098 -343.2578)">
				<stop  offset="0" style="stop-color:#4F52FF"/>
				<stop  offset="1" style="stop-color:#4042E2"/>
			</linearGradient>
			<path class="st76" d="M200.2,236.7c-1,3.6-4.8,5.7-8.5,4.7l-8-2.3c-3.6-1-5.7-4.8-4.7-8.5l0,0c1-3.6,4.8-5.7,8.5-4.7l8,2.3
				C199,229.2,201,233,200.2,236.7L200.2,236.7z"/>
			
				<linearGradient id="SVGID_12_" gradientUnits="userSpaceOnUse" x1="314.3101" y1="550.085" x2="404.3185" y2="463.431" gradientTransform="matrix(0.9628 0.2703 -0.2703 0.9628 8.9098 -343.2578)">
				<stop  offset="0" style="stop-color:#4F52FF"/>
				<stop  offset="1" style="stop-color:#4042E2"/>
			</linearGradient>
			<path class="st77" d="M228.7,244.6c-1,3.6-4.8,5.7-8.5,4.7l-8-2.3c-3.6-1-5.7-4.8-4.7-8.5l0,0c1-3.6,4.8-5.7,8.5-4.7l8,2.3
				C227.5,237.2,229.8,241,228.7,244.6L228.7,244.6z"/>
		</g>
		<g>
			
				<linearGradient id="SVGID_13_" gradientUnits="userSpaceOnUse" x1="295.5175" y1="530.565" x2="385.526" y2="443.911" gradientTransform="matrix(0.9628 0.2703 -0.2703 0.9628 8.9098 -343.2578)">
				<stop  offset="0" style="stop-color:#4F52FF"/>
				<stop  offset="1" style="stop-color:#4042E2"/>
			</linearGradient>
			<path class="st78" d="M164.7,248.3c-1,3.6-4.8,5.7-8.5,4.7l-8-2.3c-3.6-1-5.7-4.8-4.7-8.5l0,0c1-3.6,4.8-5.7,8.5-4.7l8,2.3
				C163.6,240.8,165.7,244.6,164.7,248.3L164.7,248.3z"/>
			
				<linearGradient id="SVGID_14_" gradientUnits="userSpaceOnUse" x1="310.364" y1="545.9862" x2="400.3724" y2="459.3321" gradientTransform="matrix(0.9628 0.2703 -0.2703 0.9628 8.9098 -343.2578)">
				<stop  offset="0" style="stop-color:#4F52FF"/>
				<stop  offset="1" style="stop-color:#4042E2"/>
			</linearGradient>
			<path class="st79" d="M194.5,256.6c-1,3.6-4.8,5.7-8.5,4.7l-8-2.3c-3.6-1-5.7-4.8-4.7-8.5l0,0c1-3.6,4.8-5.7,8.5-4.7l8,2.3
				C193.4,249.3,195.5,253,194.5,256.6L194.5,256.6z"/>
			
				<linearGradient id="SVGID_15_" gradientUnits="userSpaceOnUse" x1="324.707" y1="560.8847" x2="414.7155" y2="474.2307" gradientTransform="matrix(0.9628 0.2703 -0.2703 0.9628 8.9098 -343.2578)">
				<stop  offset="0" style="stop-color:#4F52FF"/>
				<stop  offset="1" style="stop-color:#4042E2"/>
			</linearGradient>
			<path class="st80" d="M223,264.7c-1,3.6-4.8,5.7-8.5,4.7l-8-2.3c-3.6-1-5.7-4.8-4.7-8.5l0,0c1-3.6,4.8-5.7,8.5-4.7l8,2.3
				C222,257.3,224.1,261.1,223,264.7L223,264.7z"/>
		</g>
		<path class="st65" d="M250,271.7c-1.2,4.7-6.1,7.3-10.7,6.1l-0.3-0.2c-4.7-1.2-7.3-6.1-6.1-10.7l4.5-15.9
			c1.2-4.7,6.1-7.3,10.7-6.1l0.5,0.2c4.7,1.2,7.3,6.1,6.1,10.7L250,271.7z"/>
	</g>
</g>
</svg>
